<?xml version="1.0" standalone="no"?>
<!DOCTYPE svg PUBLIC "-//W3C//DTD SVG 20010904//EN"
 "http://www.w3.org/TR/2001/REC-SVG-20010904/DTD/svg10.dtd">
<svg version="1.0" xmlns="http://www.w3.org/2000/svg"
 width="796.000000pt" height="981.000000pt" viewBox="0 0 796.000000 981.000000"
 preserveAspectRatio="xMidYMid meet">
    <g transform="translate(0.000000,981.000000) scale(0.100000,-0.100000)" stroke="none">
        <path d="M2758 9796 c-119 -43 -235 -161 -317 -324 -30 -60 -101 -257 -101
        -281 0 -8 442 -11 1675 -11 921 0 1675 3 1675 8 0 17 -112 237 -153 300 -88
        136 -197 241 -303 292 l-62 30 -1188 0 c-960 -1 -1196 -3 -1226 -14z"/>
        <path d="M521 8724 c-189 -51 -345 -225 -431 -481 -36 -109 -67 -250 -76 -351
        l-7 -72 3973 0 3973 0 -6 103 c-12 191 -53 369 -116 502 -67 142 -148 230
        -261 284 l-55 26 -3470 2 c-3006 1 -3477 0 -3524 -13z"/>
        <path d="M527 5758 c3 -915 8 -2495 12 -3513 7 -1833 8 -1851 28 -1912 29 -86
        62 -140 122 -196 60 -57 130 -91 226 -112 62 -14 391 -15 3030 -13 l2960 3 77
        26 c142 49 239 132 298 255 64 133 60 -152 60 3657 l0 3467 -3409 0 -3408 0 4
        -1662z m1923 740 c58 -24 105 -70 138 -133 l27 -50 3 -2580 c2 -2319 1 -2584
        -13 -2621 -20 -54 -70 -105 -131 -134 -42 -21 -64 -24 -159 -25 -97 0 -116 3
        -159 24 -66 32 -117 85 -152 157 l-29 59 0 2550 0 2550 24 52 c26 60 91 124
        148 148 46 20 152 33 213 27 25 -2 65 -13 90 -24z m1640 0 c60 -25 124 -89
        152 -152 l23 -51 3 -2545 c1 -1805 -1 -2560 -9 -2598 -14 -72 -61 -130 -133
        -166 -49 -26 -72 -31 -151 -34 -69 -3 -106 0 -144 13 -70 23 -147 94 -182 170
        l-29 60 0 2551 0 2551 31 61 c48 97 124 148 238 162 83 10 143 3 201 -22z
        m1620 10 c67 -19 125 -71 162 -145 l33 -68 0 -2580 0 -2580 -22 -40 c-28 -53
        -68 -89 -128 -117 -43 -20 -66 -23 -160 -23 -100 0 -115 2 -161 27 -66 35
        -128 105 -154 175 -20 54 -20 58 -18 2606 l3 2552 22 41 c35 66 70 101 129
        130 84 41 198 50 294 22z"/>
    </g>
</svg>
